<?xml version="1.0" encoding="utf-8"?>
<!-- Generator: Adobe Illustrator 15.1.0, SVG Export Plug-In . SVG Version: 6.00 Build 0)  -->
<!DOCTYPE svg PUBLIC "-//W3C//DTD SVG 1.1//EN" "http://www.w3.org/Graphics/SVG/1.1/DTD/svg11.dtd">
<svg version="1.1" id="Layer_1" xmlns="http://www.w3.org/2000/svg" xmlns:xlink="http://www.w3.org/1999/xlink" x="0px" y="0px"
	 width="612px" height="792px" viewBox="0 0 612 792" enable-background="new 0 0 612 792" xml:space="preserve">
<path id="path3249" fill="#00313F" d="M192.243,435.742c-15.813-0.197-28.75-0.748-28.75-1.224c0-1.458,110.833-2.431,199.417-1.749
	c46.153,0.354,84.141,0.869,84.416,1.145s0.232,0.769-0.096,1.097C446.555,435.687,236.231,436.289,192.243,435.742L192.243,435.742
	z M188.493,417.809c0-0.421,0.857-1.694,1.904-2.83c1.047-1.135,5.355-10.84,9.573-21.564c8.745-22.236,11.023-26.581,16.271-31.038
	l3.751-3.185l-9.502,0.568c-10.862,0.65-17.26,2.574-21.24,6.387c-3.026,2.899-4.887,8.059-4.054,11.244
	c0.733,2.805-1.265,2.554-4.368-0.549c-3.675-3.674-2.754-8.659,2.512-13.603c6.587-6.183,11.074-7.037,40.652-7.735
	c14.3-0.338,26.152-0.532,26.337-0.431s-0.918,1.006-2.453,2.013c-2.088,1.37-5.191,1.915-12.337,2.167
	c-8.634,0.305-9.807,0.582-12.258,2.9c-2.814,2.66-8.489,15.358-15.758,35.263c-4.133,11.316-7.453,17.104-10.821,18.869
	C194.125,417.632,188.493,418.679,188.493,417.809z M273.493,417.928c0-0.388,0.827-1.899,1.837-3.359
	c1.011-1.459,2.088-3.329,2.395-4.154c0.306-0.824,1.493-3.851,2.638-6.725l2.082-5.225l-4.499,3.435
	c-7.687,5.868-15.929,7.129-19.998,3.061c-4.289-4.289-2.6-13.664,4.114-22.833c7.531-10.287,21.432-14.085,21.432-5.858
	c0,3.775-5.656,10.193-12.953,14.696c-6.088,3.758-7.888,7.009-5.919,10.688c1.195,2.233,3.34,2.196,8.372-0.145
	c6.258-2.912,12.005-9.633,14.933-17.464c1.412-3.778,2.567-7.009,2.567-7.181s-1.012-0.5-2.25-0.732
	c-2.081-0.389-2.015-0.52,0.889-1.747c1.727-0.729,3.927-2.709,4.89-4.399c5.391-9.464,12.562-13.73,24.146-14.367
	c7.739-0.425,8.312-0.312,10.75,2.127c1.417,1.417,2.575,3.081,2.575,3.698c0,1.541-5.548,6.968-7.123,6.968
	c-0.992,0-1.01-0.267-0.076-1.2c0.66-0.66,1.199-2.45,1.199-3.977c0-6.049-9.232-7.642-16.071-2.771
	c-2.836,2.019-8.928,10.242-8.928,12.05c0,0.391,4.5,0.462,10,0.159c10.613-0.585,12.647,0.319,7.132,3.171
	c-8.07,4.174-15.813,26.471-9.505,27.372c4.779,0.682,13.373-14.6,13.373-23.779c0-2.66,0.344-2.845,9-4.864
	c10.904-2.543,12.413-2.19,11.711,2.739c-0.282,1.98-0.852,4.442-1.266,5.472c-0.413,1.029,1.359-0.386,3.939-3.145
	c5.231-5.592,9.359-7.759,13.029-6.838c4.842,1.215,4.391,3.843-3.802,22.111c-2.28,5.087-3.592,9.548-3.6,12.25
	c-0.014,4.902-1.072,5.281-4.679,1.674c-3.464-3.463-2.879-8.099,2.533-20.056c2.273-5.022,4.133-9.635,4.133-10.25
	c0-4.559-10.078,7.082-16.5,19.058c-4.592,8.563-5.265,9.35-8.25,9.638c-1.787,0.173-3.25-0.021-3.25-0.431
	c0-0.41,2.25-6.519,5-13.575c5.914-15.175,6.186-17.129,2.25-16.188c-3.9,0.932-4.249,1.235-4.25,3.689
	c-0.001,2.81-5.146,13.707-8.627,18.27c-5.395,7.071-14.297,10.263-19.15,6.864c-5.073-3.553-1.332-18.462,6.549-26.102l3.963-3.842
	l-5.79,0.335l-5.789,0.335l-4.186,11.665c-5.786,16.124-10.37,25.729-13.133,27.517
	C278.591,417.539,273.493,418.944,273.493,417.928L273.493,417.928z M273.679,384.756c3.748-3.964,5.286-8.223,3.251-9.004
	c-2.835-1.088-8.606,6.078-10.924,13.563l-0.744,2.4l2.865-2.059C269.704,388.523,272.202,386.318,273.679,384.756z
	 M243.128,409.342c-2.071-1.629-2.635-2.938-2.635-6.119v-4.046l-3.5,2.67c-7.928,6.047-15.006,7.152-19.165,2.994
	c-2.323-2.323-2.508-3.066-1.901-7.646c1.602-12.074,10.871-23.087,21.25-25.248c2.457-0.512,3.648-0.2,5.211,1.363
	c1.706,1.706,1.863,2.497,0.991,4.998c-1.28,3.67-9.19,11.199-14.745,14.033c-3.792,1.935-4.142,2.444-4.142,6.033
	c0,2.157,0.404,4.171,0.897,4.476c2.386,1.475,7.863-1.069,12.618-5.858c4.135-4.167,6.293-7.848,12.029-20.519
	c6.583-14.543,7.183-15.491,10.315-16.303c1.829-0.474,3.708-0.726,4.176-0.559c0.468,0.167-2.449,7.799-6.482,16.962
	c-8.689,19.742-10.826,25.862-10.826,31.009C247.22,411.988,246.749,412.19,243.128,409.342z M232.571,385.962
	c4.642-4.398,6.575-8.294,4.932-9.938c-0.753-0.753-1.569-0.75-2.787,0.01c-3.905,2.437-11.357,16.674-7.639,14.593
	C227.844,390.198,230.316,388.099,232.571,385.962z M420.037,409.27c-2.291-1.801-2.668-2.76-2.359-6
	c0.203-2.12,0.019-3.855-0.408-3.855c-0.428,0-0.777,0.447-0.777,0.994c0,1.969-8.264,7.006-11.494,7.006
	c-3.492,0-6.506-2.549-6.506-5.503c0-1.731-0.139-1.718-2.25,0.212c-6.24,5.707-14.195,6.936-18.304,2.828l-2.464-2.465
	l-3.631,2.465c-4.211,2.857-9.465,3.207-11.882,0.789c-2.403-2.402-1.466-6.465,4.579-19.838
	c5.145-11.384,5.168-11.413,9.305-12.277c2.281-0.477,4.297-0.756,4.48-0.622c0.184,0.135-2.179,5.841-5.25,12.681
	c-5.779,12.874-6.712,16.729-4.043,16.729c2.37,0,7.459-4.165,7.459-6.105c0-2.986,3.975-11.156,7.548-15.518
	c4.093-4.994,10.581-8.377,16.068-8.377c6.61,0,8.567,4.138,3.749,7.928c-3.219,2.532-4.822,2.667-3.86,0.322
	c2.226-5.422-1.114-6.942-5.696-2.592c-8.504,8.072-12.682,26.918-5.497,24.791c4.884-1.446,9.563-5.735,12.723-11.662
	c6.841-12.836,14.056-18.062,25.128-18.202c3.664-0.046,6.992,0.244,7.396,0.645c0.403,0.401-0.427,3.326-1.846,6.5
	c-4.314,9.654-7.92,21.503-8.07,26.518c-0.078,2.613-0.419,4.751-0.757,4.752C423.039,411.414,421.535,410.449,420.037,409.27z
	 M413.791,398.92c3.295-3.394,13.268-22.273,12.284-23.256c-1.166-1.167-6.22,1.148-9.028,4.134
	c-3.935,4.183-8.195,12.063-9.385,17.357C406.199,403.666,408.529,404.337,413.791,398.92z M377.742,366.718
	c-1.711-0.644-1.577-4.787,0.203-6.264c2.263-1.878,5.047-0.856,5.047,1.852C382.992,364.828,379.816,367.498,377.742,366.718z"/>
</svg>
